<?xml version="1.0" standalone="no"?>
<!DOCTYPE svg PUBLIC "-//W3C//DTD SVG 20010904//EN"
 "http://www.w3.org/TR/2001/REC-SVG-20010904/DTD/svg10.dtd">
<svg version="1.0" xmlns="http://www.w3.org/2000/svg"
 width="260.000000pt" height="260.000000pt" viewBox="0 0 260.000000 260.000000"
 preserveAspectRatio="xMidYMid meet">
<metadata>
Created by potrace 1.11, written by Peter Selinger 2001-2013
</metadata>
<g transform="translate(0.000000,260.000000) scale(0.100000,-0.100000)"
fill="#000000" stroke="none">
<path d="M1625 2523 c-177 -27 -319 -109 -410 -238 -68 -98 -98 -190 -109
-340 -4 -44 -8 -100 -11 -125 -7 -75 -14 -151 -20 -226 l-6 -72 250 0 c250 0
251 0 252 22 5 99 7 141 9 141 1 0 4 23 6 50 9 117 13 160 14 160 1 0 3 26 5
58 2 32 6 62 10 65 4 4 112 7 241 8 l235 1 -6 -66 c-3 -36 -8 -91 -11 -121
-11 -137 -15 -178 -19 -215 -6 -64 -16 -175 -20 -240 -3 -33 -7 -80 -10 -105
-4 -24 -8 -78 -11 -120 -6 -87 -12 -155 -14 -155 0 0 -3 -27 -5 -60 -4 -56
-11 -138 -20 -230 -2 -22 -7 -71 -10 -110 -15 -186 -78 -385 -157 -498 l-20
-28 31 6 c42 7 115 37 187 75 278 150 454 430 489 780 3 30 7 75 10 100 3 25
7 83 10 130 3 47 8 96 10 110 3 25 9 82 20 230 8 91 12 137 19 213 3 31 9 83
12 115 23 239 9 358 -57 468 -56 92 -173 182 -264 200 -11 2 -33 7 -50 11 -30
6 -542 11 -580 6z"/>
<path d="M715 2496 c-79 -30 -119 -49 -126 -59 -3 -5 -10 -9 -15 -10 -24 -2
-124 -77 -189 -141 -123 -122 -204 -263 -249 -439 -27 -102 -36 -166 -52 -372
-3 -38 -7 -86 -9 -105 -1 -19 -6 -71 -9 -115 -10 -119 -15 -174 -20 -230 -3
-27 -8 -81 -11 -120 -3 -38 -8 -88 -10 -110 -5 -52 -17 -200 -19 -245 -3 -55
23 -159 56 -227 51 -104 141 -181 263 -223 55 -19 80 -20 389 -17 317 3 334 4
393 26 128 47 235 136 303 251 56 96 67 143 85 360 4 41 8 85 10 97 2 12 7 68
11 124 3 56 7 109 8 117 1 15 -25 17 -246 17 -243 1 -248 1 -249 -19 -1 -12
-3 -32 -4 -46 -5 -57 -17 -187 -20 -220 -2 -19 -6 -71 -10 -115 -4 -44 -11
-84 -16 -90 -6 -6 -104 -10 -240 -10 l-231 0 6 95 c4 52 8 109 10 125 5 37 14
136 21 230 4 39 8 86 10 105 3 19 7 71 10 115 4 44 8 94 10 110 1 17 6 66 10
110 3 44 8 100 11 125 8 81 13 144 18 205 3 33 8 85 11 115 3 30 7 80 10 110
2 30 6 64 8 75 3 11 8 40 12 64 11 69 51 176 100 273 26 51 39 88 32 87 -6 0
-39 -10 -72 -23z"/>
</g>
</svg>
